<svg xmlns="http://www.w3.org/2000/svg" width="1000" height="300" viewBox="0 0 1000 300">
  <g fill="none" fill-rule="evenodd">
    <path fill="#444" fill-rule="nonzero" d="M326.721133,199.423467 C335.193197,199.423467 342.528221,197.015618 348.726205,192.199918 C354.745829,187.339629 358.825797,180.383618 360.966107,171.331887 L345.315084,171.331887 C341.212822,180.205259 335.014838,184.641945 326.721133,184.641945 C323.243128,184.641945 320.255611,183.906213 317.758581,182.43475 C315.216962,181.186235 313.165831,179.558707 311.605188,177.552166 C309.687826,175.456444 308.417016,172.714171 307.792759,169.325346 C307.079322,165.93652 306.722603,159.448703 306.722603,149.861893 C306.722603,140.275084 307.079322,133.742677 307.792759,130.264672 C308.417016,126.965026 309.687826,124.267342 311.605188,122.171621 C313.165831,120.16508 315.216962,118.492962 317.758581,117.155268 C320.255611,115.862163 323.243128,115.171021 326.721133,115.081841 C331.447653,115.171021 335.460736,116.53101 338.760382,119.161809 C341.926258,121.926377 344.111159,125.270613 345.315084,129.194516 L360.966107,129.194516 C359.405464,121.034581 355.65992,114.190045 349.729475,108.660909 C343.799031,103.176362 336.129583,100.389499 326.721133,100.300319 C319.051686,100.389499 312.653048,102.217681 307.52522,105.784866 C302.308212,109.307461 298.518078,113.320544 296.154818,117.824115 C294.683355,120.187375 293.590904,123.286366 292.877467,127.12109 C292.224175,130.866634 291.889932,138.185537 291.874196,149.077798 L291.874196,149.861893 C291.874196,161.009346 292.20862,168.545024 292.877467,172.468927 C293.234186,174.564648 293.680084,176.303651 294.215162,177.685935 C294.794829,179.023629 295.441381,180.428208 296.154818,181.899672 C298.518078,186.403243 302.308212,190.371736 307.52522,193.805151 C312.653048,197.372336 319.051686,199.245108 326.721133,199.423467 Z M398.938433,198.620851 L406.429521,176.816434 L443.416769,176.816434 L450.974742,198.620851 L466.55888,198.620851 L431.109981,101.102936 L418.736309,101.102936 L383.28741,198.620851 L398.938433,198.620851 Z M439.203032,163.707029 L410.710143,163.707029 L424.822818,121.101466 L425.090357,121.101466 L439.203032,163.707029 Z M513.828182,198.620851 L513.828182,160.563448 L536.301446,160.563448 C546.334153,160.385089 553.959011,157.174622 559.176019,150.932049 C564.259257,145.001604 566.800876,138.424607 566.800876,131.201058 C566.800876,125.850281 565.797605,121.21294 563.791064,117.289037 C561.873702,113.231364 559.376673,110.110077 556.299976,107.925177 C552.643611,105.026839 549.031837,103.109477 545.464652,102.173091 C541.897467,101.459654 538.196513,101.102936 534.361789,101.102936 L499.04666,101.102936 L499.04666,198.620851 L513.828182,198.620851 Z M535.699484,146.584542 L513.828182,146.584542 L513.828182,115.081841 L535.164406,115.081841 C539.177489,114.992662 542.700084,115.906753 545.732191,117.824115 C547.738732,118.98345 549.299376,120.566388 550.414121,122.572929 C551.484276,124.80242 552.019354,127.544693 552.019354,130.799749 C552.019354,134.723653 550.703955,138.290838 548.073156,141.501304 C545.308588,144.80095 541.18403,146.495363 535.699484,146.584542 Z M643.365683,198.620851 C651.03513,198.620851 657.433768,196.056937 662.561596,190.929109 C667.734014,186.024229 670.364813,179.358053 670.453992,170.930579 C670.453992,165.84734 669.183183,161.143115 666.641564,156.817904 C663.921585,152.626462 659.908502,149.839598 654.602315,148.457314 L654.602315,148.189775 C657.411473,146.852081 659.774733,145.358322 661.692095,143.7085 C663.609457,142.147856 665.08092,140.498033 666.106486,138.759031 C668.113027,135.102666 669.071708,131.267942 668.982529,127.25486 C668.982529,119.407053 666.552384,113.097595 661.692095,108.326485 C656.876395,103.599965 649.675141,101.192115 640.088332,101.102936 L602.298467,101.102936 L602.298467,198.620851 L643.365683,198.620851 Z M638.416214,142.170151 L617.07999,142.170151 L617.07999,114.279225 L638.416214,114.279225 C643.811581,114.368404 647.780074,115.683804 650.321693,118.225423 C652.907902,120.945401 654.201007,124.267342 654.201007,128.191246 C654.201007,132.115149 652.907902,135.370205 650.321693,137.956414 C647.780074,140.765572 643.811581,142.170151 638.416214,142.170151 Z M639.820793,184.641945 L617.07999,184.641945 L617.07999,155.34644 L639.820793,155.34644 C645.305339,155.43562 649.318422,156.884788 651.860042,159.693946 C654.401661,162.547694 655.67247,165.98111 655.67247,169.994193 C655.67247,173.918096 654.401661,177.306922 651.860042,180.160669 C649.318422,183.059007 645.305339,184.552766 639.820793,184.641945 Z M713.375787,198.620851 L720.866875,176.816434 L757.854123,176.816434 L765.412096,198.620851 L780.996234,198.620851 L745.547335,101.102936 L733.173663,101.102936 L697.724764,198.620851 L713.375787,198.620851 Z M753.640386,163.707029 L725.147497,163.707029 L739.260172,121.101466 L739.527711,121.101466 L753.640386,163.707029 Z M842.244441,199.423467 C864.583936,199.155929 875.998927,189.702889 876.489415,171.064348 C876.489415,164.152928 874.32681,158.088713 870.001598,152.871706 C865.631797,147.565518 858.87644,144.288167 849.735529,143.039652 C845.098189,142.459985 841.441824,141.947202 838.766436,141.501304 C833.950736,140.609508 830.450436,139.004275 828.265536,136.685604 C826.080635,134.411524 824.988184,131.869905 824.988184,129.060747 C825.077364,124.378817 826.704892,120.856222 829.870769,118.492962 C832.902876,116.218881 836.69301,115.081841 841.24117,115.081841 C850.025363,115.260201 858.073824,117.75723 865.386553,122.572929 L873.613373,110.399911 C864.650821,103.934389 854.105331,100.567858 841.976902,100.300319 C831.899605,100.389499 824.118683,103.020298 818.634136,108.192716 C812.971231,113.409723 810.139778,120.276554 810.139778,128.793208 C810.139778,135.882988 812.391563,141.902612 816.895134,146.852081 C821.264935,151.667781 827.641278,154.766772 836.024163,156.149057 C840.706093,156.817904 845.009009,157.419866 848.932913,157.954944 C857.494156,159.426408 861.730188,163.796209 861.641009,171.064348 C861.462649,179.93772 855.041717,184.463586 842.37821,184.641945 C831.676656,184.552766 822.446565,181.320004 814.687938,174.943662 L804.989655,186.046524 C815.37908,194.964486 827.797343,199.423467 842.244441,199.423467 Z M976.396987,198.620851 L976.396987,184.641945 L928.90884,184.641945 L928.90884,156.015287 L969.440977,156.015287 L969.440977,142.905883 L928.90884,142.905883 L928.90884,115.081841 L976.396987,115.081841 L976.396987,101.102936 L914.127317,101.102936 L914.127317,198.620851 L976.396987,198.620851 Z"/>
    <path fill="#3EB0FB" fill-rule="nonzero" d="M205.469846,0 L205.469846,116.432913 L115.063114,116.432913 L115.063114,183.553062 L205.469846,183.553062 L205.469846,299.985975 L90.4067321,299.985975 L90.4067321,208.209444 L0,208.209444 L0,91.7765311 L90.4067321,91.7765311 L90.4067321,0 L205.469846,0 Z M180.813464,208.209444 L115.063114,208.209444 L115.063114,275.329593 L180.813464,275.329593 L180.813464,208.209444 Z M90.4067321,116.432913 L24.6563815,116.432913 L24.6563815,183.553062 L90.4067321,183.553062 L90.4067321,116.432913 Z M180.813464,24.6563815 L115.063114,24.6563815 L115.063114,91.7765311 L180.813464,91.7765311 L180.813464,24.6563815 Z"/>
  </g>
</svg>
